<svg width="10" height="10" viewBox="0 0 10 10" fill="none" xmlns="http://www.w3.org/2000/svg">
<g clip-path="url(#clip0)">
<path d="M9.86206 2.5217C9.79269 2.43991 9.69332 2.39316 9.58918 2.39316H7.65764V3.4188C7.65764 3.89008 7.2535 4.2735 6.75674 4.2735C6.25999 4.2735 5.85584 3.89008 5.85584 3.4188V2.39316H4.05404V3.4188C4.05404 3.89008 3.6499 4.2735 3.15314 4.2735C2.65638 4.2735 2.25224 3.89008 2.25224 3.4188V2.39316H0.320798C0.216564 2.39316 0.117195 2.43991 0.0478254 2.5217C-0.0216341 2.6035 -0.054517 2.71256 -0.0426251 2.82145L0.605573 8.78461C0.617645 9.45692 1.1417 9.99999 1.78422 9.99999H8.12575C8.76818 9.99999 9.29224 9.45692 9.3044 8.78452L9.9526 2.82136C9.9644 2.71256 9.93152 2.6035 9.86206 2.5217Z" fill="#231F20"/>
<path d="M3.15315 3.76068C3.35188 3.76068 3.51351 3.60735 3.51351 3.4188V1.53846C3.51351 1.01051 4.07468 0.683761 4.59459 0.683761H5.49549C6.0427 0.683761 6.39639 1.01923 6.39639 1.53846V3.4188C6.39639 3.60735 6.5581 3.76068 6.75675 3.76068C6.9554 3.76068 7.11711 3.60735 7.11711 3.4188V1.53846C7.11711 0.647009 6.43513 0 5.49549 0H4.59459C3.60107 0 2.79279 0.690171 2.79279 1.53846V3.4188C2.79279 3.60735 2.95441 3.76068 3.15315 3.76068Z" fill="#231F20"/>
</g>
<defs>
<clipPath id="clip0">
<path d="M0 0H10V10H0V0Z" fill="white"/>
</clipPath>
</defs>
</svg>
